<svg xmlns="http://www.w3.org/2000/svg" viewBox="0 0 385.36 324.12"><defs><style>.cls-1{fill:none;stroke-linecap:round;stroke-width:50px;}.cls-1,.cls-2{stroke:#624b9d;stroke-miterlimit:10;}.cls-2{fill:#6df2ee;stroke-width:5px;}</style></defs><title>i04</title><g id="Layer_2" data-name="Layer 2"><g id="Layer_1-2" data-name="Layer 1"><path class="cls-1" d="M74.5,299a44,44,0,0,0,46.87-41l1.68-25.38a44,44,0,0,1,46.87-41l24,1.59a44,44,0,0,0,46.87-41l1.55-23.27a44,44,0,0,1,46.86-41l24.33,1.62a44,44,0,0,0,46.86-41"/><path class="cls-2" d="M30.52,303.12q-2.32,0-4.68-.15a25,25,0,0,1,3.32-49.89,19,19,0,0,0,20.26-17.73L51.11,210a69.05,69.05,0,0,1,73.47-64.31l24,1.6a19.05,19.05,0,0,0,20.26-17.73l1.55-23.27A69.14,69.14,0,0,1,243.83,42l24.33,1.62a19,19,0,0,0,20.26-17.73,25,25,0,0,1,49.89,3.32,68.61,68.61,0,0,1-23.42,47.37,68.58,68.58,0,0,1-50.05,16.93l-24.33-1.62a19.06,19.06,0,0,0-20.26,17.74l-1.55,23.27a69,69,0,0,1-73.46,64.3l-24-1.6A19,19,0,0,0,101,213.29l-1.69,25.38a69,69,0,0,1-68.79,64.45Z"/></g></g></svg>