<?xml version="1.0" standalone="no"?>
<!DOCTYPE svg PUBLIC "-//W3C//DTD SVG 20010904//EN"
 "http://www.w3.org/TR/2001/REC-SVG-20010904/DTD/svg10.dtd">
<svg version="1.0" xmlns="http://www.w3.org/2000/svg"
 width="512.000000pt" height="512.000000pt" viewBox="0 0 512.000000 512.000000"
 preserveAspectRatio="xMidYMid meet">
<metadata>
Created by potrace 1.14, written by Peter Selinger 2001-2017
</metadata>
<g transform="translate(0.000000,512.000000) scale(0.100000,-0.100000)"
fill="#000000" stroke="none">
<path d="M1870 2564 l0 -376 243 4 c220 3 246 5 287 24 25 11 51 28 59 37 11
14 3 12 -35 -5 -45 -21 -67 -23 -281 -26 l-233 -4 0 361 c0 354 0 361 -20 361
-20 0 -20 -7 -20 -376z"/>
<path d="M2600 2565 l0 -375 179 0 c207 0 266 13 351 75 63 46 64 53 2 15 -69
-44 -161 -60 -344 -60 l-158 0 0 360 c0 313 -2 360 -15 360 -13 0 -15 -48 -15
-375z"/>
<path d="M2110 2775 c0 -12 13 -15 61 -15 73 0 99 -12 99 -45 0 -32 17 -32 32
0 9 19 8 29 -6 50 -15 23 -21 25 -101 25 -69 0 -85 -3 -85 -15z"/>
<path d="M2835 2779 c-9 -14 -9 -14 64 -27 104 -18 151 -79 151 -192 -1 -25
-7 -63 -15 -85 l-14 -40 24 30 c61 75 54 206 -14 274 -21 21 -52 41 -71 44
-50 10 -118 8 -125 -4z"/>
<path d="M2415 2610 c-3 -5 -1 -10 4 -10 6 0 11 5 11 10 0 6 -2 10 -4 10 -3 0
-8 -4 -11 -10z"/>
<path d="M2110 2505 c0 -12 14 -15 66 -15 89 0 124 -19 124 -69 0 -20 2 -21
15 -11 23 19 19 76 -7 94 -32 23 -198 23 -198 1z"/>
</g>
</svg>
